<?xml version="1.0" encoding="UTF-8" standalone="no"?><svg xmlns="http://www.w3.org/2000/svg" xmlns:xlink= "http://www.w3.org/1999/xlink" width="600" height="390" aria-label="A chart." style="overflow: hidden;"><defs id="_ABSTRACT_RENDERER_ID_14"><filter id="_ABSTRACT_RENDERER_ID_15"><feGaussianBlur in="SourceAlpha" stdDeviation="2"></feGaussianBlur><feOffset dx="1" dy="1"></feOffset><feComponentTransfer><feFuncA type="linear" slope="0.1"></feFuncA></feComponentTransfer><feMerge><feMergeNode></feMergeNode><feMergeNode in="SourceGraphic"></feMergeNode></feMerge></filter></defs><rect x="0" y="0" width="600" height="390" stroke="none" stroke-width="0" fill="#ffffff"></rect><g><text text-anchor="start" x="115" y="52.05" font-family="Arial" font-size="13" font-weight="bold" stroke="none" stroke-width="0" fill="#000000">Acivity</text><rect x="115" y="41" width="371" height="13" stroke="none" stroke-width="0" fill-opacity="0" fill="#ffffff"></rect></g><g><rect x="365" y="75" width="121" height="76" stroke="none" stroke-width="0" fill-opacity="0" fill="#ffffff"></rect><g column-id="Sedentary&quot;,"><rect x="365" y="75" width="121" height="13" stroke="none" stroke-width="0" fill-opacity="0" fill="#ffffff"></rect><g><text text-anchor="start" x="383" y="86.05" font-family="Arial" font-size="13" stroke="none" stroke-width="0" fill="#222222">Sedentary",</text></g><circle cx="371.5" cy="81.5" r="6.5" stroke="none" stroke-width="0" fill="#3366cc"></circle></g><g column-id="&quot;Lightly&quot;,"><rect x="365" y="96" width="121" height="13" stroke="none" stroke-width="0" fill-opacity="0" fill="#ffffff"></rect><g><text text-anchor="start" x="383" y="107.05" font-family="Arial" font-size="13" stroke="none" stroke-width="0" fill="#222222">"Lightly",</text></g><circle cx="371.5" cy="102.5" r="6.5" stroke="none" stroke-width="0" fill="#dc3912"></circle></g><g column-id="&quot;Fairly&quot;,"><rect x="365" y="117" width="121" height="13" stroke="none" stroke-width="0" fill-opacity="0" fill="#ffffff"></rect><g><text text-anchor="start" x="383" y="128.05" font-family="Arial" font-size="13" stroke="none" stroke-width="0" fill="#222222">"Fairly",</text></g><circle cx="371.5" cy="123.5" r="6.5" stroke="none" stroke-width="0" fill="#ff9900"></circle></g><g column-id="&quot;Very"><rect x="365" y="138" width="121" height="13" stroke="none" stroke-width="0" fill-opacity="0" fill="#ffffff"></rect><g><text text-anchor="start" x="383" y="149.05" font-family="Arial" font-size="13" stroke="none" stroke-width="0" fill="#222222">"Very</text></g><circle cx="371.5" cy="144.5" r="6.5" stroke="none" stroke-width="0" fill="#109618"></circle></g></g><g><path d="M230,196L217.5614867461863,82.68061336190219A114,114,0,0,1,230,82L230,196A0,0,0,0,0,230,196" stroke="#ffffff" stroke-width="1" fill="#109618"></path></g><g><path d="M230,196L209.9063417042386,83.78482769120221A114,114,0,0,1,217.56148674618638,82.68061336190219L230,196A0,0,0,0,0,230,196" stroke="#ffffff" stroke-width="1" fill="#ff9900"></path></g><g><path d="M230,196L124.48687583064067,152.8377406983675A114,114,0,0,1,209.9063417042386,83.78482769120221L230,196A0,0,0,0,0,230,196" stroke="#ffffff" stroke-width="1" fill="#dc3912"></path><text text-anchor="start" x="161.93320219185424" y="132.43156369807122" font-family="Arial" font-size="13" stroke="none" stroke-width="0" fill="#ffffff">16%</text></g><g><path d="M230,196L230,82A114,114,0,1,1,124.48687583064067,152.8377406983675L230,196A0,0,0,1,0,230,196" stroke="#ffffff" stroke-width="1" fill="#3366cc"></path><text text-anchor="start" x="258.65990383804234" y="270.7948827478356" font-family="Arial" font-size="13" stroke="none" stroke-width="0" fill="#ffffff">81.2%</text></g><g></g></svg>